<?xml version="1.0" encoding="UTF-8" standalone="no"?>
<svg width="174px" height="96px" viewBox="0 0 174 96" version="1.1" xmlns="http://www.w3.org/2000/svg" xmlns:xlink="http://www.w3.org/1999/xlink">
    <!-- Generator: Sketch 42 (36781) - http://www.bohemiancoding.com/sketch -->
    <title>logo</title>
    <desc>Created with Sketch.</desc>
    <defs>
        <radialGradient cx="63.8066328%" cy="27.7478009%" fx="63.8066328%" fy="27.7478009%" r="32.4768914%" id="radialGradient-1">
            <stop stop-color="#FF5600" offset="0%"></stop>
            <stop stop-color="#F04344" offset="100%"></stop>
        </radialGradient>
    </defs>
    <g id="Page-1" stroke="none" stroke-width="1" fill="none" fill-rule="evenodd">
        <g id="Меню-телефон" transform="translate(-638.000000, -71.000000)">
            <g id="logo" transform="translate(638.000000, 71.000000)">
                <g id="floraexpress" fill="#FD4C4D">
                    <g id="Layer_1">
                        <g id="Group">
                            <path d="M11.6120342,39.3536424 C11.4837244,37.8278146 10.9704853,36.1748344 9.3666132,35.6662252 C6.35133361,34.8397351 3.27189913,41.1337748 3.27189913,43.4225166 C3.27189913,49.5258278 11.5478793,51.7509934 16.5519603,51.1152318 C22.2617451,50.415894 26.175193,44.4397351 27.0092066,39.1629139 C27.5866005,35.6662252 26.752587,32.2331126 25.5336442,28.8635762 C26.0468833,28.8635762 26.4959675,28.8635762 27.0092066,28.8 C27.7149103,28.7364238 28.4847689,28.6728477 29.1904726,28.4821192 C29.8961764,28.2913907 30.9226545,27.7192053 31.0509643,26.9562914 C31.1792741,26.1298013 30.3452606,25.4940397 29.6395568,25.2397351 C28.9338531,24.9854305 27.7790652,25.1761589 27.0092066,25.1761589 L24.0580818,25.1761589 C22.3259,21.3615894 20.4012534,17.610596 19.4389301,13.8596026 C18.8615362,11.4437086 18.8615362,9.53642384 21.8126609,9.21854305 C24.2505465,9.02781457 25.5336442,10.3629139 25.1487149,12.7152318 C24.9562502,13.8596026 24.3147014,14.8768212 25.2128698,15.8940397 C26.2393479,17.0384106 28.2923043,17.0384106 29.7678666,16.402649 C30.3452606,16.1483444 30.7943448,15.8304636 31.1151192,15.5125828 C32.4623718,14.0503311 33.0397657,11.8887417 32.911456,9.91788079 C32.5906815,5.97615894 29.5754019,2.1615894 25.8544186,0.762913907 C23.6731525,-0.0635761589 21.2352669,1.10467191e-14 19.1181557,1.0807947 C15.6537919,2.86092715 13.4083709,8.70993377 12.7026672,12.397351 C11.9328086,16.5298013 12.7668221,21.2980132 13.92161,25.3668874 C13.4725258,25.3668874 13.0234416,25.4304636 12.5743574,25.4304636 C10.3930914,25.6211921 7.37781177,24.9854305 5.32485545,26.0662252 C4.55499683,26.4476821 3.8492931,27.7192053 4.61915171,28.4821192 C5.13239079,28.9907285 6.09471407,28.8 6.8004178,28.8635762 C9.49492297,29.1178808 12.253583,29.181457 15.0122431,29.181457 C15.589637,31.597351 16.1028761,34.013245 16.6802701,36.3655629 C17.0010445,37.7006623 17.4501287,39.0993377 17.7067482,40.4980132 C18.2841422,43.2317881 17.8992129,46.7284768 14.1140747,46.1562914 C9.43076808,45.4569536 11.8686537,42.2145695 11.6120342,39.3536424 Z" id="Shape"></path>
                            <path d="M81.7333234,50.797351 C84.5561383,50.415894 85.7750811,47.9364238 86.4807849,45.2662252 C87.9563472,42.1509934 88.2771217,38.2728477 89.4319096,34.9668874 C90.0734584,33.186755 90.6508524,31.1523179 91.9339501,29.6900662 C93.088738,28.3549669 94.5001455,28.1006623 96.1040176,28.8635762 C98.6060581,30.0715232 101.172254,31.8516556 103.802604,29.4993377 C105.278166,28.2278146 106.625419,25.4304636 105.85556,23.3960265 C105.214011,21.7430464 102.840281,20.8529801 101.172254,20.5986755 C96.8097214,20.0264901 92.4471892,23.3960265 90.0093035,26.7019868 C89.2394449,27.7192053 88.5978961,28.8 88.0205021,29.9443709 C87.7638826,27.0834437 86.994024,24.0953642 84.8769128,22.2516556 C83.1447309,20.789404 79.744522,20.1536424 78.076495,21.4887417 C78.0123401,21.4887417 77.9481852,21.5523179 77.9481852,21.5523179 C76.6650875,22.3788079 75.9593837,23.9046358 75.0612154,25.0490066 C74.2913567,26.002649 73.3931884,26.7655629 72.4308651,27.5284768 C71.5326967,25.9390728 70.249599,24.5403974 68.581572,23.7139073 C65.758757,22.3152318 61.33207,21.4251656 58.9583392,24.1589404 C58.9583392,24.2225166 58.8941844,24.2225166 58.8941844,24.2860927 C58.1243257,24.6675497 57.3544671,25.1125828 56.6487634,25.6211921 C54.659962,27.0834437 53.4410191,28.9907285 52.6711605,31.2794702 C52.1579214,32.9324503 51.837147,34.8397351 51.9013019,36.810596 C51.837147,37.1284768 51.7729921,37.5099338 51.7729921,37.7642384 C51.4522177,39.607947 50.8748237,41.3245033 50.1049651,43.0410596 C49.7841907,43.8039735 49.3992614,44.4397351 48.7577125,45.0119205 C47.923699,45.8384106 46.7689111,46.2834437 45.6782781,45.584106 C43.8819413,44.3761589 42.6629985,42.5324503 41.8931399,40.4344371 C42.5988436,39.6715232 43.3045473,38.9086093 43.8819413,38.0821192 C45.5499683,35.6662252 47.1538404,33.2503311 48.8860223,30.8980132 C51.837147,26.8291391 55.6222852,19.1364238 53.505174,14.1774834 C52.4786959,11.6980132 51.1955982,10.3629139 48.4369381,10.8715232 C45.1008841,11.5072848 42.7271534,13.4781457 40.4817324,15.9576159 C34.2587085,22.7602649 31.5000485,31.6609272 30.9868094,40.6887417 C30.8584996,42.8503311 30.7943448,45.1390728 31.243429,47.2370861 C29.9603313,48.381457 28.6130787,49.5258278 27.329981,50.6701987 C26.5601224,51.3695364 24.1863916,52.4503311 24.2505465,53.4675497 C24.3147014,54.9298013 26.4959675,54.3576159 27.3941359,54.1033113 C29.3187824,53.5311258 31.0509643,52.0688742 32.5906815,50.6701987 C33.0397657,51.3695364 33.5530048,52.005298 34.1945537,52.5774834 C36.1192002,54.2940397 37.7872272,54.802649 40.4817324,54.6754967 C42.5346887,54.6119205 44.3951804,53.6582781 46.1915171,52.7046358 C49.2709516,51.1152318 51.4522177,48.1271523 52.6711605,45.0119205 C52.9277801,44.3761589 53.1202447,43.6768212 53.3127094,42.9774834 C53.6976387,43.6768212 54.2108778,44.3761589 54.7882717,44.8847682 C58.3809453,48.2543046 64.9247435,48.0635762 68.8381915,45.7112583 C73.3931884,42.9139073 75.1895251,37.3192053 74.0988921,32.2966887 C73.9705823,31.597351 73.7781177,30.9615894 73.5214981,30.2622517 C75.1253702,29.4993377 76.6009326,28.5456954 77.6915656,27.5284768 C78.1406498,29.2450331 78.7821987,31.0251656 79.0388182,32.7417219 C79.6162122,36.3019868 80.0652964,40.815894 79.6803671,44.3761589 C79.2954378,46.792053 77.2424814,51.3695364 81.7333234,50.797351 Z M40.6100422,29.6900662 C40.8666617,27.0834437 41.3157459,24.4768212 42.0856045,21.997351 C42.7271534,20.0900662 45.2291939,14.9403974 47.8595442,18.1192053 C48.501093,18.8821192 48.5652479,20.3443709 48.501093,21.2980132 C48.1161637,24.8582781 46.1273623,28.6092715 44.5234901,31.7880795 C43.5611669,33.7589404 42.342224,35.6662252 40.9308166,37.5099338 C40.7383519,36.3655629 40.6100422,35.2211921 40.5458873,34.1403974 C40.4817324,32.5509934 40.4817324,31.0251656 40.6100422,29.6900662 Z M66.0153766,26.6384106 C66.7210803,27.7192053 66.7210803,29.1178808 66.7210803,30.389404 C65.4379826,30.5801325 64.09073,30.5165563 63.1284068,30.007947 C62.6151677,29.7536424 62.422703,29.181457 62.2943933,28.6728477 C61.9736188,26.7655629 64.6039691,24.6039735 66.0153766,26.6384106 Z M65.5021375,37.1284768 C65.1172082,38.018543 64.5398142,38.9086093 63.8341105,39.607947 C62.4868579,40.8794702 59.9848174,40.7523179 58.8300295,39.3536424 C57.0978476,37.2556291 58.5734099,34.013245 59.5998881,31.7245033 C60.2414369,32.0423841 61.0112956,32.2966887 61.8453091,32.4238411 C63.2567165,32.6145695 64.9247435,32.5509934 66.6569254,32.2331126 C66.5927706,33.8860927 66.2078412,35.5390728 65.5021375,37.1284768 Z" id="Shape"></path>
                            <path d="M100.915634,35.2211921 C97.3229604,35.4754967 93.6019771,37.5099338 91.7414854,40.4980132 C89.9451487,43.3589404 89.3677547,47.4913907 92.1264148,50.0344371 C97.0663409,54.5483444 103.417674,52.5139073 107.331122,48.2543046 C107.908516,49.7165563 108.678375,50.9880795 109.576543,51.7509934 C111.37288,53.4039735 114.067385,53.8490066 116.441116,53.594702 C120.739493,53.1496689 124.973716,48.0635762 124.845406,43.7403974 C124.845406,42.786755 123.241534,38.1456954 121.637662,40.3072848 C120.996113,41.197351 121.958436,44.0582781 121.509352,45.202649 C119.77717,50.2887417 115.478793,41.8966887 114.837244,40.3708609 C114.580624,39.7986755 114.25985,38.7178808 113.810766,37.5099338 C112.720133,34.394702 110.987951,30.4529801 108.61422,32.2966887 C107.587742,33.0596026 106.882038,34.3311258 106.432954,35.7933775 C104.636617,35.1576159 101.813802,35.1576159 100.915634,35.2211921 Z M102.519506,44.4397351 C99.9533107,43.6768212 99.1192972,41.3245033 101.108099,39.1629139 C102.134577,38.018543 103.674294,37.8278146 105.085702,38.0821192 C105.342321,38.1456954 105.598941,38.2092715 105.919715,38.2728477 C105.72725,40.1165563 105.791405,42.0874172 106.11218,43.994702 C105.278166,44.6940397 104.251688,45.0119205 102.519506,44.4397351 Z" id="Shape"></path>
                            <path d="M49.078487,74.3205298 C48.6935577,75.0198675 49.2709516,77.3721854 47.7953893,76.418543 C46.833066,75.8463576 46.1273623,73.6847682 45.5499683,72.4768212 C45.8707427,72.0317881 46.1273623,71.586755 46.3839818,71.1417219 C47.5387697,69.2980132 48.501093,67.3271523 49.3992614,65.4198675 C50.3615847,63.3854305 52.1579214,60.7788079 50.9389786,58.4264901 C50.6823591,57.981457 50.3615847,57.5364238 49.8483456,57.1549669 C48.0520088,55.6927152 44.7801097,55.6927152 42.919618,57.1549669 C41.5082105,58.2993377 41.5723654,59.9523179 42.7271534,61.2874172 C43.5611669,62.2410596 44.3951804,62.1774834 44.8442646,63.3218543 C45.3575036,64.4662252 44.7801097,65.6741722 44.2027157,66.7549669 C43.9460962,67.2635762 43.6253217,67.8357616 43.3045473,68.407947 C43.2403924,68.2172185 43.1120827,68.0900662 43.0479278,67.8993377 C41.3157459,65.0384106 39.00617,62.813245 35.7342709,61.7960265 C33.1680755,61.0331126 29.0621629,60.5880795 27.0733614,62.8768212 C26.0468833,64.0847682 25.9185735,67.7086093 26.4959675,69.1072848 C27.0733614,70.5059603 28.2923043,71.3960265 29.7678666,71.6503311 C32.7831462,72.2225166 35.5418062,73.7483444 38.1721565,75.5284768 C35.6059611,78.1986755 32.5906815,80.1059603 29.3829373,79.7880795 C26.6242772,79.5337748 25.3411795,82.2039735 26.3035028,84.5562914 C28.2281494,89.2609272 34.9002574,84.4927152 37.0173686,82.5218543 C38.5570858,81.0596026 40.0326482,79.5337748 41.3799008,77.8807947 C42.0856045,78.389404 42.7271534,78.8980132 43.3687022,79.3430464 C44.0744059,79.8516556 44.7159548,80.3602649 45.4216585,80.805298 C46.5764465,81.6317881 48.2444735,83.0304636 49.7200358,82.2039735 C51.1314433,81.4410596 51.7088372,78.7708609 51.7729921,77.2450331 C51.837147,76.1642384 51.837147,75.210596 51.0672884,74.384106 C50.6823591,73.8119205 49.591726,73.3033113 49.078487,74.3205298 Z" id="Shape"></path>
                            <path d="M75.1253702,57.6635762 C72.4308651,55.4384106 68.9665013,55.184106 65.8229119,56.7735099 C64.3473496,57.5364238 63.000097,58.807947 61.9736188,60.3337748 C61.3962249,58.5536424 60.4980565,56.9006623 59.0224941,55.3748344 C57.418622,53.7218543 53.505174,51.8781457 53.2485545,55.3748344 C53.1202447,56.7099338 53.6976387,58.0450331 54.082568,59.3165563 C54.5316522,60.6516556 54.7882717,62.1139073 55.0448913,63.5125828 C55.750595,68.407947 55.6864401,73.4304636 55.6864401,78.389404 C55.6222852,83.0304636 54.4674973,87.4172185 53.6976387,91.8675497 C53.5693289,92.6940397 52.9919349,94.6013245 54.1467229,95.3006623 C55.6864401,96.1907285 57.0978476,95.2370861 58.3167904,93.6476821 C61.3962249,89.6423841 62.8717872,84.9377483 63.3850263,80.1059603 L63.5133361,80.1059603 C71.340232,80.4874172 78.5255791,75.7192053 78.589734,67.4543046 C78.589734,63.7668874 78.076495,60.1430464 75.1253702,57.6635762 Z M69.4155855,71.9046358 C69.2872757,72.2225166 69.1589659,72.5403974 69.0306562,72.8582781 C67.9400231,75.0198675 65.8870668,76.7364238 63.577491,77.5629139 C63.7058007,75.4649007 63.6416458,73.3668874 63.5133361,71.2688742 C63.6416458,69.4887417 63.9624203,67.7086093 64.668124,66.1827815 C65.758757,63.8940397 68.3249524,63.7033113 69.4797404,66.0556291 C70.3779088,67.7721854 69.9929795,70.1245033 69.4155855,71.9046358 Z" id="Shape"></path>
                            <path d="M95.334159,63.194702 C96.6172567,62.7496689 98.6060581,64.3390728 100.402395,63.7668874 C104.444153,62.4953642 105.278166,57.8543046 100.787324,56.9642384 C97.1946507,56.2013245 94.1793711,58.9350993 92.4471892,61.7960265 C91.5490208,63.2582781 90.7150073,64.7205298 89.8809938,66.2463576 C89.8809938,66.1192053 89.8809938,66.0556291 89.9451487,65.9284768 C90.5866975,61.2874172 90.3942329,54.3576159 84.0428993,54.1668874 C78.2048047,53.9761589 81.2842392,59.7615894 81.925788,62.9403974 C82.8881113,67.6450331 82.503182,72.6039735 81.7333234,77.3721854 C81.5408587,78.6437086 81.1559294,79.9152318 81.2200843,81.2503311 C81.2842392,82.013245 80.9634648,82.3311258 81.7974783,82.7761589 C82.6956467,83.2847682 83.4655053,83.2847682 84.171209,82.9668874 C86.8015593,83.4754967 91.3565561,69.1072848 92.5754989,66.9456954 C93.088738,66.1192053 94.5001455,63.5125828 95.334159,63.194702 Z" id="Shape"></path>
                            <path d="M114.51647,73.0490066 C113.105062,72.9218543 111.693655,75.0834437 110.731331,75.8463576 C108.550065,77.6264901 105.98387,78.1350993 103.481829,76.6092715 C104.700772,75.9099338 105.919715,75.0834437 107.010348,74.1933775 C108.61422,72.8582781 111.180416,70.2516556 110.282247,67.8993377 C109.640698,66.1192053 106.946193,65.4198675 105.278166,65.2927152 C101.172254,65.0384106 96.2964823,68.789404 95.0133846,72.6039735 C92.8321185,79.0887417 98.0286642,83.8569536 104.636617,83.0304636 C107.459432,82.7125828 110.346402,81.186755 112.399358,79.3430464 C113.489991,78.389404 114.38816,77.0543046 115.029709,75.7827815 C115.542948,74.8291391 115.927877,73.1761589 114.51647,73.0490066 Z M101.877957,72.1589404 C102.198732,71.1417219 102.711971,69.615894 103.738449,68.9165563 C105.214011,67.8993377 106.689574,68.7258278 106.561264,70.4423841 C106.368799,72.5403974 104.508308,74.2569536 102.840281,75.3377483 C102.711971,75.4013245 102.583661,75.4649007 102.455351,75.592053 C101.749647,74.5748344 101.557183,73.2397351 101.877957,72.1589404 Z" id="Shape"></path>
                            <path d="M26.1110382,72.9218543 C25.661954,71.9682119 23.9297721,72.1589404 23.0957586,72.413245 C20.8503376,73.0490066 18.8615362,74.384106 16.6161152,74.8927152 C15.3971724,75.1470199 13.92161,75.0198675 12.7668221,74.5112583 C11.8044988,74.0662252 10.8421756,73.4304636 10.0723169,72.6039735 C11.8686537,72.2225166 13.6649905,71.7139073 15.3971724,71.0781457 C19.1823106,69.6794702 22.4542097,66.4370861 23.0957586,62.3682119 C23.8014623,57.9178808 20.5295632,55.1205298 16.2311859,54.9298013 C6.86457269,54.4847682 -1.15478793,63.4490066 0.834013504,72.6039735 C1.86049166,77.1178808 5.00408102,79.6609272 8.85337412,80.6145695 C12.830977,81.6317881 17.5142836,80.9324503 21.171112,79.0887417 C22.3900548,78.4529801 23.4806879,77.6900662 24.4430112,76.7364238 C25.2128698,75.9099338 26.6884321,74.002649 26.1110382,72.9218543 Z M10.6497109,64.9748344 C11.8044988,63.8304636 14.0499198,62.1774834 15.7821017,63.2582781 C17.7067482,64.4662252 16.167031,66.8821192 15.076398,67.9629139 C13.6008356,69.3615894 11.6120342,70.1880795 9.68738762,70.6966887 C9.49492297,70.7602649 9.30245831,70.7602649 9.04583877,70.8238411 C8.917529,70.5059603 8.85337412,70.1880795 8.85337412,69.8701987 C8.78921923,68.0900662 9.43076808,66.2463576 10.6497109,64.9748344 Z" id="Shape"></path>
                            <path d="M126.898362,66.818543 C125.486955,65.8013245 124.332167,65.4198675 122.66414,64.9112583 C121.573507,64.5933775 120.354564,64.1483444 119.969635,62.8768212 C118.943157,59.3801325 124.781251,63.3854305 125.16618,61.3509934 C126.128504,56.010596 115.735412,58.807947 114.25985,61.8596026 C112.848443,64.784106 114.003231,67.0092715 116.248651,68.8529801 C118.429918,70.6966887 121.188578,71.5231788 122.022591,74.5112583 C122.40752,75.8463576 122.40752,78.1350993 121.445197,79.3430464 C119.77717,81.5046358 119.007312,79.7880795 117.595904,78.8344371 C114.837244,76.9271523 112.976752,80.2331126 114.067385,82.7761589 C115.286328,85.5099338 120.354564,85.192053 122.728295,84.1748344 C125.871884,82.7761589 128.566389,79.7245033 129.849487,76.6092715 C131.581669,72.4768212 130.555191,69.5523179 126.898362,66.818543 Z" id="Shape"></path>
                            <path d="M145.11835,62.4317881 C143.001238,60.9695364 139.793494,60.2066225 137.419764,59.3165563 C136.393285,58.9350993 135.495117,58.9986755 134.917723,57.981457 C134.276174,56.9006623 134.789413,55.3112583 135.880046,54.6754967 C137.804693,53.594702 142.038915,58.5536424 141.653986,53.594702 C141.269057,49.0172185 136.970679,49.589404 133.891245,51.2423841 C131.004275,52.7682119 128.373925,55.184106 128.43808,58.6172185 C128.502235,61.986755 132.287373,64.7205298 134.853568,66.818543 C135.046033,67.0092715 135.238497,67.1364238 135.430962,67.3271523 C137.227299,68.8529801 139.60103,72.794702 139.023636,75.210596 C137.868848,79.9788079 134.276174,74.5748344 132.287373,75.3377483 C130.875965,75.8463576 130.875965,78.007947 131.645824,78.9615894 C133.57047,81.4410596 139.665184,81.3139073 142.23138,80.1695364 C145.695744,78.7072848 148.775178,74.9562914 149.416727,71.2688742 C150.058276,67.3271523 148.261939,64.6569536 145.11835,62.4317881 Z" id="Shape"></path>
                        </g>
                    </g>
                </g>
                <g id="other3" transform="translate(117.557353, 3.320919)" fill="url(#radialGradient-1)">
                    <g id="Layer_1">
                        <path d="M54.1642248,16.599895 C54.2418239,16.522423 54.3970223,16.522423 54.5522206,16.4449511 C54.707419,16.3674792 54.9402165,16.2900073 55.0954149,16.2125354 C55.173014,16.2125354 55.173014,16.1350635 55.2506132,16.0575916 C55.3282124,15.9801196 55.4058116,15.9801196 55.4834108,15.9026477 C55.6386091,15.8251758 55.7162083,15.7477039 55.8714066,15.670232 C55.9490058,15.5927601 56.1042042,15.5152881 56.2594025,15.4378162 L56.2594025,15.4378162 C56.1042042,15.3603443 55.9490058,15.3603443 55.7938075,15.2828724 C55.4834108,15.2054005 55.0954149,15.0504567 54.7850182,14.9729847 C54.5522206,14.8955128 54.3970223,14.8955128 54.1642248,14.8955128 L53.6210305,14.8955128 C53.7762289,14.740569 54.0090264,14.6630971 54.2418239,14.5856252 C54.4746215,14.5081533 54.6298198,14.3532094 54.7850182,14.1982656 C54.8626173,14.1207937 54.8626173,14.0433218 54.9402165,13.9658498 C55.0954149,13.810906 55.173014,13.5784903 55.2506132,13.3460745 C55.173014,13.4235464 55.0954149,13.4235464 55.0178157,13.5010184 C54.9402165,13.5010184 54.8626173,13.5010184 54.8626173,13.5784903 C54.7850182,13.5784903 54.7850182,13.6559622 54.707419,13.6559622 C54.0866256,13.8883779 53.388233,14.0433218 52.6898404,14.1207937 C52.2242454,14.1982656 51.6810511,14.1982656 51.2154561,14.2757375 C50.749861,14.3532094 50.3618651,14.5856252 50.1290676,14.9729847 C49.8962701,15.3603443 49.7410717,15.7477039 49.6634726,16.2125354 L46.7147039,16.2125354 C46.7147039,16.0575916 46.7147039,15.9026477 46.5595055,15.7477039 L46.7923031,15.7477039 C47.9562907,15.4378162 47.5682948,13.9658498 47.3354973,13.1911307 C47.0251006,12.1839958 46.4819064,11.2543328 45.8611129,10.3246698 C44.7747245,8.77523153 42.5243484,4.74669194 45.0851212,3.35219747 C45.9387121,2.88736598 46.0939105,3.89450088 46.7923031,3.97197279 C47.4130965,4.04944471 47.4906956,3.5071413 47.3354973,3.11978173 L47.3354973,3.04230981 C46.5595055,1.41539959 44.4643278,2.42253449 43.688336,3.5071413 C42.36915,5.28899535 43.0675426,7.76809663 43.9211335,9.54995068 C44.6971253,11.099389 45.7059146,12.6488273 45.4731171,14.4306813 C45.4731171,14.6630971 45.2403195,15.1279286 45.2403195,15.2828724 C44.9299228,15.3603443 44.6195261,15.4378162 44.3867286,15.670232 C44.2315302,15.7477039 44.1539311,15.9026477 44.0763319,16.0575916 C43.3779393,16.0575916 42.6019476,15.9801196 41.903555,15.9801196 C42.5243484,15.7477039 42.9123443,15.3603443 43.3003401,14.6630971 C43.5331377,14.1982656 43.6107368,13.7334341 43.688336,13.2686026 C43.7659352,12.881243 43.688336,12.3389396 43.7659352,12.029052 C43.5331377,12.7262992 42.9123443,13.1136588 42.36915,13.5010184 C42.2139517,13.5784903 42.0587533,13.7334341 41.903555,13.8883779 C41.5931583,14.1982656 41.3603607,14.6630971 41.2827616,15.0504567 C41.2051624,15.3603443 41.2051624,15.670232 41.049964,15.9801196 L39.6531789,15.9801196 C39.4979805,15.8251758 39.3427822,15.5927601 39.265183,15.7477039 C39.3427822,15.5152881 39.3427822,15.3603443 39.265183,15.1279286 C38.7219888,15.1279286 37.8683978,15.1279286 37.4028028,15.4378162 C37.1700052,15.5927601 37.0924061,15.9026477 36.8596085,16.0575916 C36.4716127,16.3674792 35.7732201,16.2900073 35.307625,16.2125354 C35.1524267,16.2125354 34.9196291,16.1350635 34.7644308,16.0575916 C34.6868316,15.8251758 34.6092324,15.5927601 34.4540341,15.2828724 C34.6092324,15.2054005 34.7644308,15.1279286 35.0748275,14.9729847 C35.6180217,14.740569 36.0060176,14.740569 36.5492118,14.8180409 C37.2476044,14.8955128 37.945997,14.740569 38.4891912,14.1982656 C38.7219888,13.9658498 39.0323855,13.5010184 39.1099846,13.1911307 C39.1875838,12.8037711 39.1099846,12.3389396 39.265183,12.029052 C39.3427822,11.8741081 39.4979805,11.8741081 39.6531789,11.7191643 C40.1187739,11.3318047 40.1187739,11.099389 39.730778,10.7120294 C39.6531789,10.6345575 39.6531789,10.6345575 39.5755797,10.5570856 C39.3427822,10.3246698 39.1875838,10.0922541 39.1875838,9.70489451 C39.1099846,9.31753494 39.1875838,8.85270345 39.1099846,8.46534387 C39.1099846,8.23292813 38.9547863,7.92304047 38.9547863,7.69062472 C38.9547863,7.38073706 39.1099846,7.30326514 39.3427822,7.14832131 C39.6531789,6.99337748 39.8859764,6.68348982 40.1963731,6.60601791 L40.1963731,6.52854599 C39.730778,6.52854599 39.3427822,6.37360216 38.9547863,6.21865833 C39.1875838,6.0637145 39.5755797,5.90877067 39.6531789,5.59888301 C39.3427822,5.67635493 38.9547863,5.59888301 38.6443896,5.5214111 C38.3339929,5.44393918 38.1011954,5.36646727 37.7907987,5.28899535 C37.6356003,5.21152343 37.4028028,5.13405152 37.2476044,5.21152343 C37.3252036,4.97910769 37.4028028,4.74669194 37.5580011,4.59174811 C37.0924061,4.43680428 36.626811,4.28186045 36.161216,4.20438854 C35.9284184,4.20438854 35.7732201,4.12691662 35.5404226,4.12691662 C35.307625,4.12691662 34.9972283,4.20438854 34.7644308,4.20438854 C34.7644308,3.97197279 34.84203,3.81702896 34.7644308,3.58461322 C34.2212366,4.04944471 33.3676456,4.12691662 32.669253,4.43680428 C32.3588563,4.59174811 31.9708605,4.82416386 31.7380629,5.13405152 C31.5828646,5.28899535 31.3500671,5.83129876 31.1172695,5.59888301 C31.0396704,5.5214111 30.9620712,5.36646727 30.884472,5.36646727 C30.7292736,5.28899535 30.8068728,5.36646727 30.7292736,5.5214111 C30.6516745,5.75382684 30.5740753,5.90877067 30.4188769,6.14118642 C30.2636786,6.37360216 30.1084802,6.60601791 30.0308811,6.83843365 C29.8756827,7.30326514 29.8756827,8.0779843 30.0308811,8.54281579 C29.8756827,8.46534387 29.6428852,8.38787196 29.4876868,8.23292813 C29.4876868,9.16259111 29.8756827,9.85983834 30.3412778,10.6345575 C30.4964761,10.8669732 30.8068728,11.4092766 30.9620712,11.7966362 C30.884472,11.9515801 30.8068728,12.029052 30.6516745,12.1065239 C30.4964761,12.1839958 30.3412778,12.1839958 30.1860794,12.1065239 C29.7980835,12.029052 29.565286,12.1065239 29.1772901,12.1065239 C28.7892943,12.1065239 28.3236992,12.1839958 27.9357033,12.1839958 C27.5477074,12.1839958 27.2373107,12.2614677 26.8493149,12.3389396 C26.8493149,11.8741081 26.8493149,11.4092766 26.926914,10.9444452 C27.1597116,9.93731026 28.0909017,9.00764728 28.0909017,8.0779843 C28.0909017,7.14832131 27.3925091,5.83129876 26.6165173,5.36646727 C25.607728,4.74669194 24.0557445,4.82416386 22.9693561,4.74669194 C20.9517775,4.59174811 19.399794,4.12691662 17.5374137,3.35219747 C17.1494179,3.19725364 16.761422,3.04230981 16.3734261,2.88736598 C15.8302319,2.57747832 15.2870376,2.19011874 14.7438434,1.80275917 C14.3558475,1.49287151 13.8902525,1.33792768 13.5022566,0.950568102 C13.1918599,0.718152356 13.0366615,0.253320865 12.6486657,0.0983770351 C12.0278723,-0.13403871 11.7174756,0.330792781 11.7174756,0.873096187 C11.7174756,1.72528725 12.4158681,2.34506257 13.0366615,2.80989407 C13.1918599,2.88736598 13.4246574,3.11978173 13.5798558,3.11978173 C13.2694591,3.11978173 12.4934673,2.80989407 12.4934673,3.27472556 C12.4934673,3.66208513 12.8814632,3.97197279 13.1918599,4.20438854 C13.4246574,4.35933237 13.657455,4.43680428 13.9678517,4.43680428 C14.12305,4.43680428 14.4334467,4.43680428 14.5886451,4.59174811 L14.0454508,4.59174811 L13.5022566,4.59174811 C13.4246574,4.66922003 13.4246574,4.90163577 13.4246574,5.0565796 C13.5798558,5.5214111 13.8902525,5.75382684 14.2782484,5.83129876 C14.5110459,5.90877067 14.6662442,5.90877067 14.8990418,5.90877067 C15.0542401,5.90877067 15.2870376,5.83129876 15.442236,5.98624259 C15.2094385,5.98624259 14.8990418,5.98624259 14.7438434,6.14118642 C14.5110459,6.29613025 14.5886451,6.60601791 14.7438434,6.76096174 C14.8990418,6.99337748 15.2094385,6.99337748 15.442236,7.14832131 C15.7526327,7.30326514 16.0630294,7.30326514 16.3734261,7.30326514 C16.2958269,7.30326514 16.0630294,7.53568089 15.9854302,7.6131528 C15.9078311,7.76809663 15.9078311,7.92304047 15.9854302,8.0779843 C16.2958269,8.46534387 16.761422,8.6202877 17.227017,8.6202877 L17.7702113,8.6202877 C17.6150129,8.6202877 17.227017,8.77523153 17.0718187,8.93017536 C16.9166203,9.08511919 17.0718187,9.24006302 17.227017,9.39500685 C17.4598146,9.6274226 17.7702113,9.78236643 18.080608,9.85983834 C17.227017,10.2471979 16.2182278,10.6345575 15.3646368,10.9444452 C14.2782484,11.3318047 13.1918599,11.7191643 12.0278723,11.7966362 C11.484678,11.8741081 10.8638846,11.8741081 10.2430912,11.8741081 C9.69989698,11.8741081 8.38071099,11.3318047 7.99271512,11.6416924 C7.60471924,11.9515801 7.99271512,12.5713554 8.30311182,12.8037711 C9.46709946,13.5784903 10.9414838,13.4235464 12.2606698,13.1911307 C11.7174756,13.2686026 11.019083,13.9658498 11.5622772,14.3532094 C12.1054714,14.8180409 13.2694591,14.2757375 13.8902525,14.1982656 C13.3470583,14.5856252 13.5022566,14.9729847 14.12305,15.1279286 C14.3558475,15.2054005 14.5886451,15.1279286 14.8214426,15.1279286 C15.0542401,15.0504567 15.2870376,15.0504567 15.5974344,14.9729847 C15.7526327,14.8955128 15.9854302,14.8955128 16.1406286,14.8180409 C15.9854302,14.9729847 15.7526327,15.1279286 15.7526327,15.3603443 C15.7526327,15.4378162 15.8302319,15.5152881 15.9078311,15.5152881 C16.2182278,15.670232 16.6062236,15.5927601 16.9166203,15.5927601 C17.3046162,15.5152881 17.6150129,15.3603443 18.0030088,15.2054005 C17.6150129,15.7477039 17.8478105,15.9801196 18.4686039,15.9801196 C18.8565997,15.9801196 19.2445956,15.8251758 19.6325915,15.670232 C19.7877898,15.5927601 19.9429882,15.5152881 20.0205874,15.5152881 C19.9429882,15.5927601 19.7877898,15.7477039 19.7877898,15.9026477 C19.7877898,16.0575916 19.865389,16.0575916 19.9429882,16.1350635 C20.2533849,16.2900073 20.6413808,16.2125354 20.9517775,16.1350635 C21.184575,16.0575916 21.4173725,15.9801196 21.5725709,15.9026477 C21.4949717,16.0575916 21.4949717,16.2125354 21.6501701,16.2900073 C21.3397734,16.522423 20.9517775,16.7548388 20.6413808,16.9097826 C20.2533849,17.0647265 19.6325915,17.0647265 19.2445956,17.2971422 L19.0893973,17.2971422 C18.4686039,17.3746141 17.9254096,17.5295579 17.3822154,17.8394456 C16.8390212,18.1493333 16.3734261,18.381749 15.9078311,18.8465805 C15.5198352,19.2339401 15.2870376,19.6987716 15.2094385,20.241075 C15.1318393,20.4734907 15.0542401,20.7059065 15.0542401,21.0157941 C14.8990418,22.022929 13.8126533,21.7130414 13.1142607,21.9454571 C12.8814632,22.022929 12.6486657,22.1778729 12.4158681,22.2553448 C12.2606698,22.3328167 12.0278723,22.4102886 11.8726739,22.5652324 C11.6398764,22.3328167 11.484678,22.022929 11.2518805,21.7130414 C10.8638846,21.2482099 10.3206904,21.0157941 9.77749616,20.9383222 C9.07910358,20.8608503 8.22551264,21.093266 7.52712006,20.8608503 C6.82872748,20.6284345 6.67352913,19.311412 5.81993819,19.5438277 C5.50954149,19.6212997 5.27674396,19.8537154 5.04394643,20.0861311 C4.73354973,20.3960188 4.73354973,20.8608503 4.42315302,21.170738 C4.11275632,21.4806256 3.80235962,21.7130414 3.33676456,21.7130414 C2.94876868,21.7130414 2.48317363,21.7905133 2.17277692,22.1778729 C2.01757857,22.3328167 1.9399794,22.4877605 1.70718187,22.5652324 C1.47438434,22.6427043 1.31918599,22.5652324 1.08638846,22.5652324 C0.775991759,22.6427043 0.543194231,23.1850077 0.775991759,23.5723673 C0.931190111,23.8047831 1.24158681,23.7273112 1.39678517,23.6498392 C2.09517775,23.4174235 2.94876868,23.5723673 3.72476044,23.5723673 C4.57835138,23.4948954 5.50954149,23.4174235 6.36313242,23.4948954 C6.67352913,23.4948954 7.061525,23.5723673 7.37192171,23.7273112 C8.38071099,24.1146707 9.23430193,24.8893899 10.0878929,25.5866371 C10.6310871,26.0514686 11.1742813,26.6712439 11.8726739,26.9811316 C12.2606698,27.2135473 12.7262648,27.1360754 13.1918599,27.1360754 C14.4334467,27.1360754 15.5974344,27.1360754 16.761422,26.6712439 C17.5374137,26.3613563 18.2358063,25.9739967 18.9341989,25.5866371 C19.0117981,25.9739967 19.0893973,26.2838844 19.2445956,26.593772 C19.4773931,26.9811316 19.7101907,27.3684912 19.9429882,27.7558507 C20.2533849,28.1432103 20.5637816,28.5305699 20.8741783,28.9179295 C21.1069758,29.2278171 21.4173725,29.6926486 21.1069758,30.0025363 C20.7965791,30.3898959 20.0981866,30.6223116 19.7101907,30.9321993 C19.2445956,31.3195588 18.8565997,31.7843903 18.6238022,32.3266937 C18.3910047,32.8689971 18.2358063,33.3338286 18.080608,33.876132 C17.9254096,34.4959074 17.7702113,35.1156827 17.227017,35.4255703 C16.761422,35.735458 16.2182278,35.8129299 16.0630294,36.3552333 C15.9078311,36.8200648 16.2958269,36.9750086 16.6062236,37.2074244 C17.1494179,37.5173121 17.5374137,38.1370874 17.6150129,38.7568627 C17.6926121,39.2216942 17.5374137,39.7639976 17.6150129,40.2288291 C17.8478105,40.9260763 18.3134055,40.4612448 18.7014014,40.9260763 C18.8565997,41.0810201 18.7790006,41.3134359 18.8565997,41.4683797 C19.0893973,41.7782674 19.7877898,41.7007955 19.7877898,41.235964 C19.865389,40.8486044 19.3221948,40.6936606 19.2445956,40.306301 C19.0893973,39.6090538 19.4773931,39.0667504 19.6325915,38.446975 C19.7877898,37.6722559 19.6325915,36.9750086 20.0205874,36.2002895 C20.3309841,35.5805142 20.8741783,35.1931546 21.3397734,34.7283231 C22.6589594,33.5662444 23.7453478,32.2492218 24.9869346,31.0096712 C26.0733231,29.9250644 25.8405256,28.2981541 25.607728,26.8261878 C25.4525297,26.1289405 25.3749305,25.3542214 25.2197322,24.6569741 C25.142133,24.2696146 25.2197322,23.9597269 25.2197322,23.5723673 C25.9957239,23.4174235 26.7717157,23.1075358 27.5477074,22.7201763 C28.4788975,22.2553448 29.4100877,21.7130414 30.4188769,21.2482099 C31.0396704,21.0157941 31.6604638,20.7833784 32.2812572,20.5509626 C32.3588563,20.5509626 32.4364555,20.4734907 32.5916539,20.4734907 C33.2900465,20.6284345 33.9108399,20.9383222 34.5316333,21.2482099 C35.5404226,21.7130414 36.4716127,21.9454571 37.5580011,21.8679852 C39.4203813,21.7905133 41.2051624,22.1778729 42.9899434,21.4031537 C43.7659352,21.093266 44.4643278,20.5509626 45.1627204,20.0861311 C44.9299228,21.7905133 43.6107368,23.0300639 42.5243484,24.3470865 C41.2051624,25.8965248 40.0411748,28.1432103 40.8171665,30.1574801 C41.3603607,31.3970308 43.1451418,32.8689971 44.3091294,31.4745027 C44.3091294,31.4745027 44.3091294,31.4745027 44.3867286,31.3970308 C44.6195261,31.0871431 44.6971253,30.4673678 44.0763319,30.3898959 C43.3779393,30.3124239 42.9899434,31.2420869 42.2915509,30.6223116 C40.0411748,28.6080418 43.222741,25.2767495 44.6195261,24.0371988 C45.3955179,23.3399516 46.1715096,22.5652324 46.7147039,21.7130414 C47.1802989,21.0157941 47.8786915,19.8537154 47.0251006,19.0789962 C46.8699022,18.9240524 46.7147039,18.9240524 46.5595055,18.9240524 C47.0251006,18.4592209 47.3354973,17.9169175 46.8699022,17.3746141 C46.9475014,17.2196703 47.1026998,17.0647265 47.0251006,16.8323107 C46.9475014,16.6773669 46.7147039,16.522423 46.7147039,16.3674792 C47.1802989,16.3674792 47.645894,16.3674792 48.111489,16.4449511 C48.7322825,16.522423 49.2754767,16.4449511 49.8962701,16.522423 C49.9738693,16.8323107 50.1290676,17.1421984 50.4394643,17.452086 C50.9050594,17.9943894 51.5258528,17.9169175 52.2242454,17.9169175 C52.8450388,17.9169175 53.4658322,17.8394456 54.0090264,17.8394456 C54.3194231,17.8394456 54.5522206,17.7619737 54.8626173,17.7619737 C55.173014,17.7619737 55.4058116,17.9169175 55.7162083,17.8394456 C55.4834108,17.6070299 55.3282124,17.2196703 55.0954149,16.9872545 C54.8626173,16.6773669 54.3194231,16.599895 53.9314272,16.599895 C54.0090264,16.599895 54.0866256,16.522423 54.0866256,16.522423 C54.0866256,16.6773669 54.0866256,16.599895 54.1642248,16.599895 Z M42.6795467,19.0015243 C42.1363525,19.0015243 41.5155591,18.9240524 40.9723649,18.7691086 C40.584369,18.6916367 40.1963731,18.6916367 39.8083772,18.7691086 C39.4979805,18.7691086 38.9547863,19.0789962 38.6443896,19.0015243 C38.2563937,19.0015243 37.8683978,18.6141648 37.4804019,18.2268052 C37.6356003,18.1493333 37.7131995,17.9943894 37.8683978,17.9169175 C38.4115921,17.5295579 39.1875838,17.9169175 39.6531789,17.3746141 C39.8083772,17.2196703 39.8859764,16.9872545 39.9635756,16.7548388 L40.6619682,16.7548388 C41.5931583,16.7548388 42.5243484,16.6773669 43.5331377,16.599895 L44.0763319,16.599895 C43.8435344,17.6070299 43.9987327,19.0015243 42.6795467,19.0015243 Z" id="Shape"></path>
                    </g>
                </g>
            </g>
        </g>
    </g>
</svg>