<?xml version="1.0" encoding="UTF-8" standalone="no"?>
<svg width="76px" height="34px" viewBox="0 0 76 34" version="1.1" xmlns="http://www.w3.org/2000/svg" xmlns:xlink="http://www.w3.org/1999/xlink">
    <!-- Generator: Sketch 39.1 (31720) - http://www.bohemiancoding.com/sketch -->
    <title>Group 5</title>
    <desc>Created with Sketch.</desc>
    <defs>
        <linearGradient x1="50%" y1="0%" x2="50%" y2="100%" id="linearGradient-1">
            <stop stop-color="#57B4FF" offset="0%"></stop>
            <stop stop-color="#359AFF" offset="100%"></stop>
        </linearGradient>
        <path d="M13.5988344,28 C21.1092632,28 27.1976688,21.7319865 27.1976688,14 C27.1976688,6.2680135 21.1092632,0 13.5988344,0 C6.08840554,0 0,6.2680135 0,14 C0,21.7319865 6.08840554,28 13.5988344,28 Z" id="path-2"></path>
        <filter x="-50%" y="-50%" width="200%" height="200%" filterUnits="objectBoundingBox" id="filter-3">
            <feOffset dx="0" dy="1" in="SourceAlpha" result="shadowOffsetOuter1"></feOffset>
            <feGaussianBlur stdDeviation="1.5" in="shadowOffsetOuter1" result="shadowBlurOuter1"></feGaussianBlur>
            <feColorMatrix values="0 0 0 0 0.294117647   0 0 0 0 0.575552803   0 0 0 0 0.756862745  0 0 0 0.375028306 0" type="matrix" in="shadowBlurOuter1"></feColorMatrix>
        </filter>
        <linearGradient x1="50%" y1="0%" x2="50%" y2="100%" id="linearGradient-4">
            <stop stop-color="#AE69E5" offset="0%"></stop>
            <stop stop-color="#8A49BE" offset="100%"></stop>
        </linearGradient>
        <ellipse id="path-5" cx="13.5988344" cy="14" rx="13.5988344" ry="14"></ellipse>
        <filter x="-50%" y="-50%" width="200%" height="200%" filterUnits="objectBoundingBox" id="filter-6">
            <feOffset dx="0" dy="1" in="SourceAlpha" result="shadowOffsetOuter1"></feOffset>
            <feGaussianBlur stdDeviation="1.5" in="shadowOffsetOuter1" result="shadowBlurOuter1"></feGaussianBlur>
            <feColorMatrix values="0 0 0 0 0.556862745   0 0 0 0 0.301960784   0 0 0 0 0.764705882  0 0 0 0.176177536 0" type="matrix" in="shadowBlurOuter1"></feColorMatrix>
        </filter>
        <linearGradient x1="50%" y1="0%" x2="50%" y2="100%" id="linearGradient-7">
            <stop stop-color="#56EC79" offset="0%"></stop>
            <stop stop-color="#4ABA44" offset="100%"></stop>
        </linearGradient>
        <ellipse id="path-8" cx="13.5988344" cy="14" rx="13.5988344" ry="14"></ellipse>
        <filter x="-50%" y="-50%" width="200%" height="200%" filterUnits="objectBoundingBox" id="filter-9">
            <feOffset dx="0" dy="1" in="SourceAlpha" result="shadowOffsetOuter1"></feOffset>
            <feGaussianBlur stdDeviation="1.5" in="shadowOffsetOuter1" result="shadowBlurOuter1"></feGaussianBlur>
            <feColorMatrix values="0 0 0 0 0.294117647   0 0 0 0 0.756862745   0 0 0 0 0.298039216  0 0 0 0.375028306 0" type="matrix" in="shadowBlurOuter1"></feColorMatrix>
        </filter>
        <polygon id="path-10" points="0 15.1540278 14.7320706 15.1540278 14.7320706 0 0 0"></polygon>
    </defs>
    <g id="Page-1" stroke="none" stroke-width="1" fill="none" fill-rule="evenodd">
        <g id="Group-7" transform="translate(-1213.000000, -254.000000)">
            <g id="Group-5" transform="translate(1216.000000, 256.000000)">
                <g id="Group-2" transform="translate(43.000000, 0.000000)">
                    <g id="Oval">
                        <use fill="black" fill-opacity="1" filter="url(#filter-3)" xlink:href="#path-2"></use>
                        <use fill="url(#linearGradient-1)" fill-rule="evenodd" xlink:href="#path-2"></use>
                    </g>
                    <path d="M7,13.8068278 C7,10.4407197 10.1502797,7.99441653 14,8.00000957 C17.8497203,8.00560261 21,10.4407197 21,13.8068278 C21,17.1729358 17.5834251,19.6136459 14,19.6136459 C13.4117482,19.6136459 12.7604426,19.5282357 12.2217629,19.4875696 C11.6830833,19.4469036 10.5881681,20.47109 9.22727273,20.3441591 C9.96761455,19.8360858 10.2559837,19.245981 10.3417422,18.7330087 C8.39720165,17.7335761 7,15.9594217 7,13.8068278 Z" id="Oval-8" fill="#FFFFFF"></path>
                </g>
                <g id="Group-3" transform="translate(22.098106, 0.000000)">
                    <g id="Oval-Copy">
                        <use fill="black" fill-opacity="1" filter="url(#filter-6)" xlink:href="#path-5"></use>
                        <use fill="url(#linearGradient-4)" fill-rule="evenodd" xlink:href="#path-5"></use>
                    </g>
                    <g id="viber" transform="translate(6.232799, 6.416667)" fill="#FFFFFF">
                        <path d="M14.4032167,3.78719522 L14.398651,3.76948207 C14.0441072,2.30600319 12.4458602,0.735934661 10.9779494,0.409142629 L10.9615128,0.405786454 C8.58733612,-0.0567442231 6.17992098,-0.0567442231 3.80617045,0.405786454 L3.78930771,0.409142629 C2.3218839,0.735934661 0.723636872,2.30600319 0.368606146,3.76948207 L0.364527432,3.78719522 C-0.0737212292,5.83091952 -0.0737212292,7.90323347 0.364527432,9.94670916 L0.368606146,9.96467092 C0.708417791,11.3655012 2.18777336,12.8634741 3.60071286,13.2754757 L3.60071286,14.9088765 C3.60071286,15.5000606 4.30651296,15.7904319 4.70768794,15.3638247 L6.3287636,13.6435363 C6.68020262,13.6636733 7.03218953,13.6748606 7.38387206,13.6748606 C8.57905694,13.6748606 9.77466796,13.5595076 10.9615128,13.3283665 L10.9779494,13.3247618 C12.4458602,12.9982183 14.0441072,11.4279012 14.398651,9.96467092 L14.4032167,9.94670916 C14.8414653,7.90323347 14.8414653,5.83091952 14.4032167,3.78719522 L14.4032167,3.78719522 Z M13.1202481,9.65030916 C12.8836827,10.6048924 11.6699306,11.7918598 10.7056496,12.0110677 C9.44343987,12.256255 8.17100293,12.3609179 6.89996615,12.3249944 C6.87476335,12.3242486 6.85023019,12.3341928 6.83263693,12.3529004 C6.65238214,12.5417785 5.64914031,13.5932558 5.64914031,13.5932558 L4.39021791,14.9122948 C4.29817291,15.0103697 4.13648539,14.9436191 4.13648539,14.8083777 L4.13648539,12.1026167 C4.13648539,12.0579299 4.10513408,12.0198311 4.06227715,12.0113163 L4.061364,12.0110677 C3.09708302,11.7918598 1.88406137,10.6048924 1.64700897,9.65030916 C1.2524695,7.80323187 1.2524695,5.93067251 1.64700897,4.08359522 C1.88406137,3.12901195 3.09708302,1.94204462 4.061364,1.72283665 C6.26624361,1.29455139 8.5015005,1.29455139 10.7056496,1.72283665 C11.6704176,1.94204462 12.8836827,3.12901195 13.1202481,4.08359522 C13.5152746,5.93067251 13.5152746,7.80323187 13.1202481,9.65030916 L13.1202481,9.65030916 Z" id="Fill-2"></path>
                        <path d="M9.48148758,10.8993657 C9.3330711,10.853498 9.19183802,10.8226709 9.06083217,10.7670454 C7.70109858,10.1912127 6.45002923,9.44831713 5.45890179,8.30939283 C4.89530878,7.66171315 4.45419893,6.93068845 4.08108793,6.15671713 C3.90442484,5.78983745 3.75533872,5.40847649 3.60333054,5.0297259 C3.46495865,4.68422629 3.66901609,4.32735299 3.88372689,4.0671251 C4.08534928,3.82287012 4.34480417,3.63591873 4.62562666,3.49800478 C4.84490318,3.39048287 5.06107501,3.45263426 5.22136237,3.64225817 C5.56756603,4.05251952 5.88552307,4.4837259 6.14278642,4.95905976 C6.30118662,5.25160637 6.25790355,5.60897689 5.97087168,5.80804781 C5.90122917,5.85640159 5.83749165,5.91320797 5.77253662,5.96783904 C5.71573901,6.01588207 5.66198521,6.06417371 5.62296349,6.12899761 C5.55161643,6.24776892 5.54808561,6.38760956 5.59422986,6.51651155 C5.94804306,7.50944223 6.54444841,8.28148685 7.52321796,8.69715538 C7.67991362,8.76365737 7.83709629,8.84109801 8.0175946,8.81971793 C8.31984555,8.78354582 8.41755205,8.44538008 8.62946254,8.26837291 C8.83632029,8.09577849 9.10076704,8.09335458 9.3238179,8.23754582 C9.54686875,8.3815506 9.76304058,8.53618327 9.97775138,8.69255618 C10.1886878,8.84594582 10.3986503,8.99597928 10.593211,9.17105976 C10.7803448,9.33930359 10.8448129,9.56000319 10.739436,9.78816096 C10.5465798,10.2062534 10.2660008,10.5539283 9.86123409,10.7760574 C9.74684748,10.838706 9.61036276,10.858843 9.48148758,10.8993657 C9.3330711,10.853498 9.61036276,10.858843 9.48148758,10.8993657 L9.48148758,10.8993657 Z" id="Fill-3"></path>
                        <path d="M7.38764639,3.01999841 C9.16590471,3.07096255 10.6265104,4.27589163 10.9394147,6.07076175 C10.9926815,6.37667092 11.0117358,6.68935458 11.0354775,6.99961434 C11.0454612,7.13025657 10.973201,7.25431076 10.8350118,7.25598884 C10.6926221,7.25772908 10.6283975,7.1360988 10.6191443,7.00545657 C10.6008206,6.74715538 10.5882192,6.48761116 10.5532153,6.23148526 C10.3691861,4.87894661 9.31286016,3.75997291 7.99427896,3.51988207 C7.79576127,3.48370996 7.59267785,3.47426295 7.3917251,3.45263426 C7.26473709,3.43902311 7.09830122,3.43125418 7.07023723,3.27003347 C7.04643459,3.13485418 7.15820352,3.02727012 7.28446102,3.02024701 C7.31873439,3.01832032 7.35319039,3.01999841 7.38764639,3.01999841 C9.16590471,3.07096255 7.35319039,3.01999841 7.38764639,3.01999841 L7.38764639,3.01999841 Z" id="Fill-4"></path>
                        <path d="M10.0900073,6.59687331 C10.0871461,6.61943426 10.0855025,6.67282231 10.0726576,6.72310279 C10.0253567,6.90520637 9.75470052,6.92801594 9.69242404,6.74423426 C9.67385676,6.68960319 9.67123908,6.62745179 9.67099558,6.56871873 C9.67050856,6.1841259 9.58850816,5.80003028 9.39875665,5.46553147 C9.20328277,5.12152351 8.90504966,4.83233307 8.5552543,4.65756335 C8.34364819,4.55171952 8.11487496,4.4861498 7.88299704,4.44680797 C7.78169884,4.42984064 7.67924398,4.4193992 7.57745877,4.40479363 C7.45400158,4.38732908 7.3881334,4.30721594 7.39385577,4.18291315 C7.39933464,4.06662789 7.48255258,3.98284781 7.60692291,3.99011952 C8.01497691,4.0136749 8.40927287,4.10379442 8.77191314,4.29994422 C9.50979507,4.69883187 9.93118099,5.32861195 10.0543338,6.16933386 C10.0598127,6.20743267 10.0688224,6.24509641 10.0716835,6.28344382 C10.0786234,6.37785179 10.0828848,6.47232191 10.0900073,6.59687331 C10.0871461,6.61943426 10.0828848,6.47232191 10.0900073,6.59687331 L10.0900073,6.59687331 Z" id="Fill-5"></path>
                        <path d="M8.98400625,6.55293227 C8.83516364,6.55560478 8.75547653,6.4715761 8.74025745,6.33223267 C8.72954321,6.23509004 8.72126403,6.13676653 8.69843541,6.04235857 C8.65369131,5.85615299 8.55689796,5.68374502 8.40355049,5.56963506 C8.33122942,5.51599841 8.24922901,5.47665657 8.16339339,5.45142311 C8.05424214,5.41916653 7.94076867,5.42811633 7.83186093,5.40070757 C7.71369998,5.37130996 7.64831881,5.27348367 7.66682521,5.16011952 C7.68374883,5.05713466 7.78194234,4.97677291 7.89231112,4.98479044 C8.58167462,5.03556813 9.07459022,5.39946454 9.14478062,6.22831554 C9.14977248,6.28661355 9.15567749,6.34851633 9.14289346,6.40432829 C9.12122149,6.50022789 9.0517616,6.54808446 8.98400625,6.55293227 C8.83516364,6.55560478 9.0517616,6.54808446 8.98400625,6.55293227 L8.98400625,6.55293227 Z" id="Fill-6"></path>
                    </g>
                </g>
                <g id="Group-2">
                    <g id="Oval">
                        <use fill="black" fill-opacity="1" filter="url(#filter-9)" xlink:href="#path-8"></use>
                        <use fill="url(#linearGradient-7)" fill-rule="evenodd" xlink:href="#path-8"></use>
                    </g>
                    <g id="whatsapp-logo" transform="translate(6.232799, 6.416667)">
                        <mask id="mask-11" fill="white">
                            <use xlink:href="#path-10"></use>
                        </mask>
                        <g id="Clip-2"></g>
                        <path d="M14.7320706,7.38827315 C14.7320706,11.4678958 11.4942888,14.7759144 7.50026082,14.7759144 C6.23187047,14.7759144 5.04020965,14.4424583 4.00425863,13.8566458 L0,15.1666667 L1.30522053,11.2031111 C0.646574209,10.089625 0.267837228,8.78381713 0.267837228,7.38827315 C0.267837228,3.30780787 3.50561896,0 7.50026082,0 C11.4942888,0 14.7320706,3.30780787 14.7320706,7.38827315 L14.7320706,7.38827315 Z M7.50026082,1.17668056 C4.14666865,1.17668056 1.41959869,3.96271296 1.41959869,7.38827315 C1.41959869,8.74674306 1.84948869,10.005787 2.57770313,11.030169 L1.81838766,13.3365556 L4.15464852,12.5723241 C5.11448384,13.2206991 6.2646084,13.5992338 7.50026082,13.5992338 C10.8524207,13.5992338 13.5803091,10.8129907 13.5803091,7.38827315 C13.5803091,3.96271296 10.8524207,1.17668056 7.50026082,1.17668056 L7.50026082,1.17668056 Z M11.1521774,9.08988889 C11.1073674,9.0142662 10.9891016,8.96897685 10.8125214,8.87839815 C10.6351227,8.78803009 9.76306594,8.34946065 9.60080856,8.28942593 C9.43855117,8.22918056 9.31946693,8.19884722 9.20201959,8.37979398 C9.0837538,8.56095139 8.74389312,8.96897685 8.64015479,9.08988889 C8.53703029,9.21101157 8.4339058,9.22575694 8.25650711,9.13517824 C8.07890382,9.04481019 7.50742225,8.85290972 6.83056545,8.23676389 C6.30389393,7.75606481 5.9480735,7.16372222 5.84413056,6.98256481 C5.74121067,6.80161806 5.83389995,6.70366667 5.92167854,6.61329861 C6.00168187,6.53177778 6.09928183,6.40180787 6.18787887,6.2964838 C6.27668052,6.19031713 6.30614466,6.1144838 6.36527755,5.99357176 C6.42441045,5.87265972 6.39494631,5.76733565 6.35013626,5.67675694 C6.30614466,5.58638889 5.95134729,4.69513657 5.80341275,4.33218981 C5.65650127,3.9702963 5.50856673,4.03033102 5.40462378,4.03033102 C5.30149929,4.03033102 5.1832335,4.015375 5.06496771,4.015375 C4.94670192,4.015375 4.75477578,4.06066435 4.59251839,4.24182176 C4.430261,4.42276852 3.97233914,4.86133796 3.97233914,5.75174769 C3.97233914,6.64278935 4.60704585,7.50434028 4.69564289,7.62440972 C4.78444453,7.74553241 5.92167854,9.63378241 7.72410645,10.3588333 C9.52653437,11.0836736 9.52653437,10.8418495 9.85166298,10.8113056 C10.1761778,10.7818148 10.9002999,10.3735787 11.0482345,9.95059722 C11.196169,9.52761574 11.196169,9.16487963 11.1521774,9.08988889 L11.1521774,9.08988889 Z" id="Fill-1" fill="#FFFFFF" mask="url(#mask-11)"></path>
                    </g>
                </g>
            </g>
        </g>
    </g>
</svg>